<svg width="16" height="16" viewBox="0 0 16 16" fill="none" xmlns="http://www.w3.org/2000/svg">
<rect width="16" height="16" rx="4" fill="url(#paint0_linear_26_333)"/>
<path fill-rule="evenodd" clip-rule="evenodd" d="M8 12.5C11.3137 12.5 14 10.2614 14 7.5C14 4.73858 11.3137 2.5 8 2.5C4.68629 2.5 2 4.73858 2 7.5C2 8.66703 2.47979 9.74068 3.28396 10.5914C3.42634 10.7421 3.47818 10.9613 3.39224 11.1499C3.14371 11.6953 2.83828 12.2122 2.51346 12.7195C2.2981 13.0558 2.5367 13.4824 2.92681 13.3969C3.77862 13.2104 4.58657 12.7856 5.22824 12.2447C5.37641 12.1198 5.57952 12.0795 5.76326 12.141C6.45448 12.3726 7.20938 12.5 8 12.5Z" fill="url(#paint1_linear_26_333)"/>
<defs>
<linearGradient id="paint0_linear_26_333" x1="8" y1="0" x2="8" y2="16" gradientUnits="userSpaceOnUse">
<stop stop-color="#00DDFF"/>
<stop offset="1" stop-color="#0061E0"/>
</linearGradient>
<linearGradient id="paint1_linear_26_333" x1="8" y1="2.5" x2="8" y2="12.6574" gradientUnits="userSpaceOnUse">
<stop stop-color="white"/>
<stop offset="1" stop-color="#B0DDFF"/>
</linearGradient>
</defs>
</svg>
