<svg width="16" height="16" viewBox="0 0 16 16" fill="none" xmlns="http://www.w3.org/2000/svg">
<rect width="16" height="16" rx="4" fill="url(#paint0_linear_810_145)"/>
<g filter="url(#filter0_bdii_810_145)">
<path fill-rule="evenodd" clip-rule="evenodd" d="M10 13C7.79086 13 6 11.433 6 9.5C6 7.567 7.79086 6 10 6C12.2091 6 14 7.567 14 9.5C14 10.3531 13.6512 11.1349 13.0715 11.7422C12.9114 11.91 12.8571 12.16 12.97 12.3627C13.1319 12.6534 13.3062 12.9379 13.4865 13.2195C13.7019 13.5558 13.4633 13.9824 13.0732 13.8969C12.3809 13.7454 11.7175 13.4363 11.1489 13.0355C11.0287 12.9508 10.8796 12.9176 10.7344 12.9411C10.4964 12.9798 10.2509 13 10 13Z" fill="white" fill-opacity="0.5" shape-rendering="crispEdges"/>
</g>
<g filter="url(#filter1_bdii_810_145)">
<path fill-rule="evenodd" clip-rule="evenodd" d="M8 12C11.3137 12 14 9.76142 14 7C14 4.23858 11.3137 2 8 2C4.68629 2 2 4.23858 2 7C2 8.16703 2.47979 9.24068 3.28396 10.0914C3.42634 10.2421 3.47818 10.4613 3.39224 10.6499C3.14371 11.1953 2.83828 11.7122 2.51346 12.2195C2.2981 12.5558 2.5367 12.9824 2.92681 12.8969C3.77862 12.7104 4.58657 12.2856 5.22824 11.7447C5.37641 11.6198 5.57952 11.5795 5.76326 11.641C6.45448 11.8726 7.20938 12 8 12Z" fill="white" fill-opacity="0.75" shape-rendering="crispEdges"/>
</g>
<defs>
<filter id="filter0_bdii_810_145" x="5" y="3" width="10" height="12.908" filterUnits="userSpaceOnUse" color-interpolation-filters="sRGB">
<feFlood flood-opacity="0" result="BackgroundImageFix"/>
<feGaussianBlur in="BackgroundImageFix" stdDeviation="0.5"/>
<feComposite in2="SourceAlpha" operator="in" result="effect1_backgroundBlur_810_145"/>
<feColorMatrix in="SourceAlpha" type="matrix" values="0 0 0 0 0 0 0 0 0 0 0 0 0 0 0 0 0 0 127 0" result="hardAlpha"/>
<feOffset dy="1"/>
<feGaussianBlur stdDeviation="0.5"/>
<feComposite in2="hardAlpha" operator="out"/>
<feColorMatrix type="matrix" values="0 0 0 0 0 0 0 0 0 0 0 0 0 0 0 0 0 0 0.05 0"/>
<feBlend mode="normal" in2="effect1_backgroundBlur_810_145" result="effect2_dropShadow_810_145"/>
<feBlend mode="normal" in="SourceGraphic" in2="effect2_dropShadow_810_145" result="shape"/>
<feColorMatrix in="SourceAlpha" type="matrix" values="0 0 0 0 0 0 0 0 0 0 0 0 0 0 0 0 0 0 127 0" result="hardAlpha"/>
<feOffset dy="-3"/>
<feGaussianBlur stdDeviation="1.5"/>
<feComposite in2="hardAlpha" operator="arithmetic" k2="-1" k3="1"/>
<feColorMatrix type="matrix" values="0 0 0 0 0 0 0 0 0 0.380392 0 0 0 0 0.878431 0 0 0 0.25 0"/>
<feBlend mode="normal" in2="shape" result="effect3_innerShadow_810_145"/>
<feColorMatrix in="SourceAlpha" type="matrix" values="0 0 0 0 0 0 0 0 0 0 0 0 0 0 0 0 0 0 127 0" result="hardAlpha"/>
<feOffset dy="1"/>
<feGaussianBlur stdDeviation="1"/>
<feComposite in2="hardAlpha" operator="arithmetic" k2="-1" k3="1"/>
<feColorMatrix type="matrix" values="0 0 0 0 1 0 0 0 0 1 0 0 0 0 1 0 0 0 0.25 0"/>
<feBlend mode="normal" in2="effect3_innerShadow_810_145" result="effect4_innerShadow_810_145"/>
</filter>
<filter id="filter1_bdii_810_145" x="1" y="-2" width="14" height="16.908" filterUnits="userSpaceOnUse" color-interpolation-filters="sRGB">
<feFlood flood-opacity="0" result="BackgroundImageFix"/>
<feGaussianBlur in="BackgroundImageFix" stdDeviation="0.5"/>
<feComposite in2="SourceAlpha" operator="in" result="effect1_backgroundBlur_810_145"/>
<feColorMatrix in="SourceAlpha" type="matrix" values="0 0 0 0 0 0 0 0 0 0 0 0 0 0 0 0 0 0 127 0" result="hardAlpha"/>
<feOffset dy="1"/>
<feGaussianBlur stdDeviation="0.5"/>
<feComposite in2="hardAlpha" operator="out"/>
<feColorMatrix type="matrix" values="0 0 0 0 0 0 0 0 0 0 0 0 0 0 0 0 0 0 0.05 0"/>
<feBlend mode="normal" in2="effect1_backgroundBlur_810_145" result="effect2_dropShadow_810_145"/>
<feBlend mode="normal" in="SourceGraphic" in2="effect2_dropShadow_810_145" result="shape"/>
<feColorMatrix in="SourceAlpha" type="matrix" values="0 0 0 0 0 0 0 0 0 0 0 0 0 0 0 0 0 0 127 0" result="hardAlpha"/>
<feOffset dy="-4"/>
<feGaussianBlur stdDeviation="2"/>
<feComposite in2="hardAlpha" operator="arithmetic" k2="-1" k3="1"/>
<feColorMatrix type="matrix" values="0 0 0 0 0 0 0 0 0 0.380392 0 0 0 0 0.878431 0 0 0 0.25 0"/>
<feBlend mode="normal" in2="shape" result="effect3_innerShadow_810_145"/>
<feColorMatrix in="SourceAlpha" type="matrix" values="0 0 0 0 0 0 0 0 0 0 0 0 0 0 0 0 0 0 127 0" result="hardAlpha"/>
<feOffset dy="1"/>
<feGaussianBlur stdDeviation="1"/>
<feComposite in2="hardAlpha" operator="arithmetic" k2="-1" k3="1"/>
<feColorMatrix type="matrix" values="0 0 0 0 1 0 0 0 0 1 0 0 0 0 1 0 0 0 0.25 0"/>
<feBlend mode="normal" in2="effect3_innerShadow_810_145" result="effect4_innerShadow_810_145"/>
</filter>
<linearGradient id="paint0_linear_810_145" x1="8" y1="0" x2="8" y2="16" gradientUnits="userSpaceOnUse">
<stop stop-color="#00DDFF"/>
<stop offset="1" stop-color="#0061E0"/>
</linearGradient>
</defs>
</svg>
